<svg width="800" height="420" viewBox="0 0 800 420" xmlns="http://www.w3.org/2000/svg">
  <rect width="800" height="420" fill="#091525"/>
  <!-- Subtle grid -->
  <line x1="0" y1="60" x2="800" y2="60" stroke="#ffffff" stroke-width="0.3" opacity="0.05"/>
  <line x1="0" y1="120" x2="800" y2="120" stroke="#ffffff" stroke-width="0.3" opacity="0.05"/>
  <line x1="0" y1="180" x2="800" y2="180" stroke="#ffffff" stroke-width="0.3" opacity="0.05"/>
  <line x1="0" y1="240" x2="800" y2="240" stroke="#ffffff" stroke-width="0.3" opacity="0.05"/>
  <line x1="0" y1="300" x2="800" y2="300" stroke="#ffffff" stroke-width="0.3" opacity="0.05"/>
  <line x1="0" y1="360" x2="800" y2="360" stroke="#ffffff" stroke-width="0.3" opacity="0.05"/>
  <line x1="100" y1="0" x2="100" y2="420" stroke="#ffffff" stroke-width="0.3" opacity="0.05"/>
  <line x1="200" y1="0" x2="200" y2="420" stroke="#ffffff" stroke-width="0.3" opacity="0.05"/>
  <line x1="300" y1="0" x2="300" y2="420" stroke="#ffffff" stroke-width="0.3" opacity="0.05"/>
  <line x1="400" y1="0" x2="400" y2="420" stroke="#ffffff" stroke-width="0.3" opacity="0.05"/>
  <line x1="500" y1="0" x2="500" y2="420" stroke="#ffffff" stroke-width="0.3" opacity="0.05"/>
  <line x1="600" y1="0" x2="600" y2="420" stroke="#ffffff" stroke-width="0.3" opacity="0.05"/>
  <line x1="700" y1="0" x2="700" y2="420" stroke="#ffffff" stroke-width="0.3" opacity="0.05"/>
  <!-- Accent circle bg -->
  <circle cx="580" cy="210" r="260" fill="#1D9E75" opacity="0.06"/>
  <circle cx="580" cy="210" r="180" fill="#1D9E75" opacity="0.06"/>
  <circle cx="580" cy="210" r="100" fill="#1D9E75" opacity="0.08"/>
  <!-- Icon circle -->
  <circle cx="580" cy="210" r="72" fill="#1D9E75" opacity="0.15"/>
  <circle cx="580" cy="210" r="60" fill="#1D9E75" opacity="0.2"/>
  <!-- Icon (scaled and centered at 580,210) -->
  <g transform="translate(556,186) scale(2)">
    <path d="M12 2C8.13 2 5 5.13 5 9c0 5.25 7 13 7 13s7-7.75 7-13c0-3.87-3.13-7-7-7zm0 9.5c-1.38 0-2.5-1.12-2.5-2.5s1.12-2.5 2.5-2.5 2.5 1.12 2.5 2.5-1.12 2.5-2.5 2.5z" fill="#1D9E75"/>
  </g>
  <!-- Accent left bar -->
  <rect x="0" y="0" width="5" height="420" fill="#1D9E75"/>
  <!-- Category pill -->
  <rect x="52" y="60" width="184" height="28" rx="14" fill="#1D9E75" opacity="0.18"/>
  <text x="144" y="79" font-family="Inter,Segoe UI,Arial,sans-serif" font-size="12" fill="#1D9E75" text-anchor="middle" font-weight="600">Full Stack · HR-Tech</text>
  <!-- Title -->
  <text x="52" y="145" font-family="Inter,Segoe UI,Arial,sans-serif" font-size="36" font-weight="700" fill="#FFFFFF" letter-spacing="-0.5">Location Attendance</text>
  <!-- Metric -->
  <rect x="52" y="170" width="186" height="30" rx="8" fill="#1D9E75" opacity="0.2"/>
  <text x="145.0" y="191" font-family="Inter,Segoe UI,Arial,sans-serif" font-size="13" fill="#1D9E75" text-anchor="middle" font-weight="600">✓ 100+ staff tracked</text>
  <!-- Bottom bar -->
  <rect x="0" y="395" width="800" height="25" fill="#1D9E75" opacity="0.12"/>
  <text x="52" y="412" font-family="Inter,Segoe UI,Arial,sans-serif" font-size="11" fill="#1D9E75" opacity="0.8">georgevictorkamal.github.io</text>
</svg>